<svg width="105" height="32" viewBox="0 0 105 32" fill="none" xmlns="http://www.w3.org/2000/svg">
<rect x="0.5" y="0.5" width="104" height="31" rx="5.5" fill="white" stroke="#D1D1D1"/>
<path d="M71.5 31.5C71.5 30.7 71.5 31.5 71.5 0.5" stroke="#D1D1D1"/>
<path d="M20.0902 9.268H21.9662V22.274H20.0902V9.268ZM21.5462 14.07H23.8422V15.596H21.5462V14.07ZM12.3062 17.612H13.3982C15.5822 17.612 17.3042 17.542 19.2082 17.206L19.3902 18.746C17.4302 19.096 15.6522 19.152 13.3982 19.152H12.3062V17.612ZM12.3062 10.472H18.3542V11.97H14.1542V18.354H12.3062V10.472ZM24.6811 15.582H36.4271V17.052H24.6811V15.582ZM29.7071 16.548H31.5971V19.278H29.7071V16.548ZM26.0531 20.524H35.1391V22.022H26.0531V20.524ZM26.0531 18.144H27.9291V20.902H26.0531V18.144ZM30.5471 9.52C33.3331 9.52 35.2091 10.57 35.2091 12.208C35.2091 13.86 33.3331 14.896 30.5471 14.896C27.7471 14.896 25.8851 13.86 25.8851 12.208C25.8851 10.57 27.7471 9.52 30.5471 9.52ZM30.5471 10.99C28.9091 10.99 27.8871 11.41 27.8871 12.208C27.8871 13.006 28.9091 13.412 30.5471 13.412C32.1851 13.412 33.2071 13.006 33.2071 12.208C33.2071 11.41 32.1851 10.99 30.5471 10.99ZM37.574 19.306H49.306V20.818H37.574V19.306ZM42.488 16.856H44.35V19.922H42.488V16.856ZM38.89 10.122H47.99V14.434H40.766V16.618H38.918V12.978H46.142V11.592H38.89V10.122ZM38.918 15.876H48.284V17.374H38.918V15.876ZM51.8109 15.26H60.9249V16.744H51.8109V15.26ZM50.4529 19.166H62.1849V20.692H50.4529V19.166ZM51.8109 10.346H60.8269V11.858H53.6589V15.876H51.8109V10.346Z" fill="#767676"/>
<path d="M83 14L88 19L93 14" stroke="#767676" stroke-width="2"/>
</svg>
