<svg width="69" height="32" viewBox="0 0 69 32" fill="none" xmlns="http://www.w3.org/2000/svg">
<rect x="0.5" y="0.5" width="68" height="31" rx="5.5" fill="white" stroke="#D1D1D1"/>
<path d="M38.7091 12.418H41.1731V13.93H38.7091V12.418ZM40.6691 9.282H42.5311V16.982H40.6691V9.282ZM38.1351 17.262C40.8791 17.262 42.5731 18.2 42.5731 19.768C42.5731 21.35 40.8791 22.26 38.1351 22.26C35.3911 22.26 33.6971 21.35 33.6971 19.768C33.6971 18.2 35.3911 17.262 38.1351 17.262ZM38.1351 18.676C36.4551 18.676 35.5591 19.026 35.5591 19.768C35.5591 20.496 36.4551 20.846 38.1351 20.846C39.8291 20.846 40.7251 20.496 40.7251 19.768C40.7251 19.026 39.8291 18.676 38.1351 18.676ZM34.6771 10.584H36.1891V11.396C36.1891 13.874 35.0411 16.142 32.5631 16.982L31.6111 15.512C33.7531 14.784 34.6771 13.062 34.6771 11.396V10.584ZM35.0691 10.584H36.5671V11.396C36.5671 12.922 37.4491 14.504 39.4931 15.19L38.5831 16.66C36.1751 15.862 35.0691 13.706 35.0691 11.396V10.584ZM32.1151 10.066H39.0871V11.55H32.1151V10.066ZM44.574 19.236H56.306V20.748H44.574V19.236ZM49.488 16.464H51.35V19.6H49.488V16.464ZM45.806 10.108H47.654V12.096H53.184V10.108H55.032V16.856H45.806V10.108ZM47.654 13.552V15.372H53.184V13.552H47.654Z" fill="#767676"/>
<path fill-rule="evenodd" clip-rule="evenodd" d="M18 23C21.866 23 25 19.866 25 16C25 12.134 21.866 9 18 9C14.134 9 11 12.134 11 16C11 19.866 14.134 23 18 23ZM17 13V12H19V13V14H17V13ZM17 17.5V15H19V17.5V20H17V17.5Z" fill="#767676"/>
</svg>
