<svg width="69" height="32" viewBox="0 0 69 32" fill="none" xmlns="http://www.w3.org/2000/svg">
<rect x="0.5" y="0.5" width="68" height="31" rx="5.5" fill="white" stroke="#D1D1D1"/>
<path d="M37.4771 17.346C40.2771 17.346 42.0691 18.27 42.0691 19.81C42.0691 21.322 40.2771 22.246 37.4771 22.246C34.6771 22.246 32.8851 21.322 32.8851 19.81C32.8851 18.27 34.6771 17.346 37.4771 17.346ZM37.4771 18.746C35.7271 18.746 34.7331 19.11 34.7331 19.81C34.7331 20.496 35.7271 20.846 37.4771 20.846C39.2271 20.846 40.2211 20.496 40.2211 19.81C40.2211 19.11 39.2271 18.746 37.4771 18.746ZM33.0251 9.856H41.2291V11.326H33.0251V9.856ZM31.7091 15.064H43.3851V16.548H31.7091V15.064ZM36.0351 12.81H37.8831V15.442H36.0351V12.81ZM40.1511 9.856H41.9991V10.92C41.9991 11.942 41.9991 13.048 41.6491 14.392L39.8011 14.196C40.1511 12.866 40.1511 11.928 40.1511 10.92V9.856ZM47.206 17.472H49.11V22.246H47.206V17.472ZM51.686 17.472H53.59V22.246H51.686V17.472ZM44.56 16.492H56.306V17.99H44.56V16.492ZM50.398 9.716C53.17 9.716 55.088 10.85 55.088 12.628C55.088 14.378 53.17 15.512 50.398 15.512C47.64 15.512 45.722 14.378 45.722 12.628C45.722 10.85 47.64 9.716 50.398 9.716ZM50.398 11.2C48.704 11.2 47.626 11.704 47.626 12.628C47.626 13.538 48.704 14.042 50.398 14.042C52.106 14.042 53.17 13.538 53.17 12.628C53.17 11.704 52.106 11.2 50.398 11.2Z" fill="#767676"/>
<path d="M25 15.5296L17.0001 10L17.0001 13.1304C10 14.6957 10 22 10 22C10 22 13 17.8261 17.0001 18.3478L17.0001 21.5826L25 15.5296Z" fill="#767676"/>
</svg>
